<svg xmlns="http://www.w3.org/2000/svg" xmlns:xlink="http://www.w3.org/1999/xlink" width="1440" height="810" viewBox="0 0 1440 810">
  <defs>
    <style>
      .cls-1 {
        clip-path: url(#clip-path);
      }

      .cls-2, .cls-24 {
        fill: #fff;
      }

      .cls-3 {
        opacity: 0.5;
      }

      .cls-13, .cls-4 {
        fill: #6c63ff;
      }

      .cls-10, .cls-15, .cls-24, .cls-4, .cls-7 {
        opacity: 0.1;
      }

      .cls-5 {
        fill: #36334a;
      }

      .cls-6 {
        fill: #ac6a58;
      }

      .cls-7 {
        fill: #70453a;
      }

      .cls-8 {
        fill: #3f3d56;
      }

      .cls-9 {
        fill: #d7e5f2;
      }

      .cls-11 {
        fill: #696880;
      }

      .cls-12 {
        fill: #4d2d26;
      }

      .cls-14 {
        fill: #5e372e;
      }

      .cls-16 {
        fill: #6b3232;
      }

      .cls-17 {
        fill: #eb2727;
      }

      .cls-18 {
        fill: #c7daf5;
      }

      .cls-19 {
        opacity: 0.03;
      }

      .cls-20 {
        fill: #ffb0b1;
      }

      .cls-21 {
        fill: #dce7ff;
      }

      .cls-22 {
        fill: #232323;
      }

      .cls-23 {
        fill: #be8b87;
      }

      .cls-25 {
        fill: #efc8c4;
      }

      .cls-26 {
        fill: #727a9c;
      }

      .cls-27 {
        fill: #535461;
      }

      .cls-28 {
        fill: #9d9cb5;
      }

      .cls-29 {
        fill: #253c8f;
      }

      .cls-30 {
        fill: none;
        stroke: #535461;
        stroke-miterlimit: 10;
        stroke-width: 2px;
      }
    </style>
    <clipPath id="clip-path">
      <rect id="Rectangle_116" data-name="Rectangle 116" width="1440" height="810"/>
    </clipPath>
  </defs>
  <g id="Web_1920_1" data-name="Web 1920 – 1" class="cls-1">
    <rect id="Rectangle_115" data-name="Rectangle 115" class="cls-2" width="1440" height="810"/>
    <g id="undraw_doctors_hwty" class="cls-3" transform="translate(199.372 136.5)">
      <path id="Path_1" data-name="Path 1" class="cls-4" d="M91.845,356.76h76.11V460.508H97.41c-.18,1.073-.36,2.138-.562,3.21h71.108v83.655a1.069,1.069,0,0,1-.353-.135q-3-1.193-6-2.528c-.427-.195-.847-.4-1.283-.585q-3-1.418-6-3c-.7-.367-1.395-.75-2.077-1.14a124.824,124.824,0,0,1-29.925-23.295c-.262-.248-.5-.518-.75-.75-1.215-1.32-2.408-2.655-3.562-4.02-.435-.5-.855-1.012-1.283-1.5-1.365-1.665-2.685-3.39-3.96-5.122-.195-.263-.375-.518-.562-.75a110.79,110.79,0,0,1-12.9-23.325c-.105-.247-.2-.517-.3-.75-1.035-2.625-1.973-5.287-2.782-8-.345-1.133-.683-2.25-.968-3.427-.105-.338-.187-.682-.278-1.02-4.215-16.612-4.7-33.878-4.7-51.06v-6q.09-10.523.248-21.023.06-2.7.113-5.422.158-6.893.45-13.815c.045-1.275.105-2.557.173-3.825q.045-1.1.112-2.205Q91.567,360.69,91.845,356.76Z" transform="translate(-90.27 -103.112)"/>
      <path id="Path_2" data-name="Path 2" class="cls-4" d="M179.933,185.155H138.18A317.814,317.814,0,0,1,160.388,154.6c6.21-7.62,12.75-15.045,19.545-22.2Z" transform="translate(-102.247 -47.022)"/>
      <path id="Path_3" data-name="Path 3" class="cls-4" d="M168.56,207V316.11H92.69c0-.315.045-.638.075-.952.067-.862.135-1.717.21-2.58.075-1.005.173-2.01.27-3s.2-2.19.315-3.278.217-2.19.337-3.277.24-2.175.375-3.255.255-2.175.405-3.255c.113-.892.225-1.793.352-2.692.173-1.268.353-2.535.54-3.8a3.608,3.608,0,0,1,.09-.57,261.693,261.693,0,0,1,5.58-27.39,202.808,202.808,0,0,1,9.413-27.75A208.407,208.407,0,0,1,124.813,207Z" transform="translate(-90.875 -65.672)"/>
      <path id="Path_4" data-name="Path 4" class="cls-4" d="M218.09,272.211V375.958H380.66V272.211Zm0,106.958v89.1c.93.188,1.845.375,2.768.533,1.237.24,2.482.457,3.75.645l.75.105c.495.082,1,.15,1.5.21,1.253.18,2.5.315,3.75.435.585.06,1.192.105,1.785.158l1.447.1h0c.788.06,1.568.105,2.348.135.48,0,.96.037,1.448.052s.75,0,1.14,0h4.17c.645,0,1.29,0,1.927-.06h.038a11.484,11.484,0,0,0,1.342-.053,3.291,3.291,0,0,0,.383,0,9.042,9.042,0,0,0,1.11-.045,1.567,1.567,0,0,1,.255,0c.832-.052,1.673-.12,2.52-.195s1.65-.165,2.5-.255l1.7-.21a149.36,149.36,0,0,0,20.588-4.38c15.172-4.23,30-10.147,45.165-14.475,19.59-5.587,41.25-8.34,60.18-1.537V379.168ZM380.66,156.7V18.576a208.9,208.9,0,0,0-52.815,6.187C286.677,35.106,249.71,57.538,218.09,86.188v70.5h8.182v3.2H218.09V269H380.66V159.891H259.745v-3.21Zm208.86-46.657c-10.185-.36-20.31-3.577-29.475-8.565-17.505-9.518-31.5-24.232-47.13-36.638-32.475-25.852-72.75-41.46-114.068-45.33V156.7H630.905l.577-.607Zm21.143-3.75L633.08,130.9V99.816c-7.545.952-14.115,3.165-22.418,6.443ZM633.08,490.393V379.168h-47.8c-.12-.473-.255-.953-.405-1.433.143.48.27.96.4,1.433H398.848V459.6c1.77,1.313,3.517,2.7,5.25,4.1h0q2.8,2.295,5.572,4.642l1.86,1.538c.892.75,1.8,1.5,2.7,2.212q2.707,2.183,5.452,4.32,1.373,1.08,2.76,2.123a376.558,376.558,0,0,0,46.23,30.233c3.615,2.017,7.267,3.96,10.942,5.857q3.668,1.89,7.388,3.705,5.58,2.722,11.25,5.25h0a412.951,412.951,0,0,0,109.5,31.89q12.585,1.852,25.282,2.925v-68.01h.75Zm-234.233-330.5V269H633.08V159.891Zm0,112.305V375.958H633.08V272.211ZM651.26,99.666v34.725l28.6-31.4Q665.645,100.641,651.26,99.666Zm0,172.545V375.958H879.073V272.211Zm227.01,226.41.8-119.453H651.26V559.6a410.475,410.475,0,0,0,44.025-.533h.255q10.5-.675,20.9-1.92h.158a384.37,384.37,0,0,0,107.422-28.7m99-239.2q-1.3-3-2.663-6c-1.7-3.75-3.48-7.395-5.325-11.032H897.26v103.74h44.933C942.155,346.573,934.715,316.573,923.023,289.251ZM897.26,379.168v102.75a147.028,147.028,0,0,0,31.05-41.88c9.263-19.117,13.5-39.8,13.853-60.878Zm0-137.19v27h16.11a293.361,293.361,0,0,0-16.11-27Zm-154.5-121.95c-1.185-.457-2.377-.915-3.57-1.35a324.117,324.117,0,0,0-38.475-11.565L656.93,155.158h0l-.855.923.563.607H812.473a332.925,332.925,0,0,0-69.712-36.66Zm74.287,39.863H654.455l-3.2,2.917V269H879.073v-51.45a324.369,324.369,0,0,0-62.025-57.66Z" transform="translate(-122.225 -18.563)"/>
      <path id="Path_5" data-name="Path 5" class="cls-4" d="M168.56,280.39v54.068H92.69c0-.315.045-.637.075-.952.067-.862.135-1.718.21-2.58.075-1,.173-2.01.27-3s.2-2.19.315-3.277.217-2.19.337-3.277.24-2.175.375-3.255.255-2.175.405-3.255c.113-.893.225-1.793.352-2.693.173-1.267.353-2.535.54-3.795a3.609,3.609,0,0,1,.09-.57,261.692,261.692,0,0,1,5.58-27.39Z" transform="translate(-90.875 -84.02)"/>
      <path id="Path_6" data-name="Path 6" class="cls-4" d="M91.845,356.76h76.11V460.508H97.41c-.18,1.073-.36,2.138-.562,3.21h71.108v83.655a1.069,1.069,0,0,1-.353-.135q-3-1.193-6-2.528c-.427-.195-.847-.4-1.283-.585q-3-1.418-6-3c-.7-.367-1.395-.75-2.077-1.14a124.824,124.824,0,0,1-29.925-23.295c-.262-.248-.5-.518-.75-.75-1.215-1.32-2.408-2.655-3.562-4.02-.435-.5-.855-1.012-1.283-1.5-1.365-1.665-2.685-3.39-3.96-5.122-.195-.263-.375-.518-.562-.75a110.79,110.79,0,0,1-12.9-23.325c-.105-.247-.2-.517-.3-.75-1.035-2.625-1.973-5.287-2.782-8-.345-1.133-.683-2.25-.968-3.427-.105-.338-.187-.682-.278-1.02-4.215-16.612-4.7-33.878-4.7-51.06v-6q.09-10.523.248-21.023.06-2.7.113-5.422.158-6.893.45-13.815c.045-1.275.105-2.557.173-3.825q.045-1.1.112-2.205Q91.567,360.69,91.845,356.76Z" transform="translate(-90.27 -103.112)"/>
      <path id="Path_7" data-name="Path 7" class="cls-4" d="M259.363,198.73v93.48H202.13V198.73h8.16V167.08h33.5v31.65Z" transform="translate(-106.272 -41.772)"/>
      <rect id="Rectangle_1" data-name="Rectangle 1" class="cls-4" width="57.225" height="103.748" transform="translate(95.858 253.64)"/>
      <path id="Path_8" data-name="Path 8" class="cls-4" d="M218.09,499.37h57.225v86.25a148.234,148.234,0,0,1-20.587,4.373c-.57.082-1.133.15-1.7.21-.84.1-1.673.188-2.505.263l-2.513.2h-.255l-1.11.06h-.383c-.45,0-.892.052-1.342.06h-.038c-.645,0-1.283.045-1.927.06h-5.31a11.807,11.807,0,0,1-1.455-.06q-1.155-.045-2.34-.135h0l-1.447-.105c-.6-.045-1.2-.1-1.793-.165q-1.89-.165-3.75-.427l-1.5-.21-.75-.105c-1.253-.187-2.5-.4-3.75-.637-.93-.165-1.845-.352-2.767-.547Z" transform="translate(-122.225 -138.765)"/>
      <rect id="Rectangle_2" data-name="Rectangle 2" class="cls-4" width="47.19" height="104.512" transform="translate(463.658 145.918)"/>
      <path id="Path_9" data-name="Path 9" class="cls-4" d="M677.383,338.19V441.945H443.15V397.193H567.913v26.4h62.273v-85.4Z" transform="translate(-166.528 -84.55)"/>
      <path id="Path_10" data-name="Path 10" class="cls-4" d="M694.075,610.14a4.242,4.242,0,0,1-.75-.045v68.063q-12.682-1.043-25.275-2.918a413.491,413.491,0,0,1-109.545-31.875q-15.1-6.81-29.58-14.842A377.939,377.939,0,0,1,482.7,598.29q-5.535-4.23-10.905-8.648c-2.482-2.055-4.942-4.155-7.447-6.187-1.725-1.4-3.472-2.79-5.25-4.11V498.893H645.52c-.135-.48-.255-.953-.39-1.432.143.48.277.952.4,1.432h47.8V610.087C693.58,610.1,693.828,610.117,694.075,610.14Z" transform="translate(-182.478 -138.287)"/>
      <path id="Path_11" data-name="Path 11" class="cls-4" d="M925.26,190.068H894.51v-9.555h13.777V152.05q1.793.66,3.57,1.35v27.113h13.395Z" transform="translate(-291.33 -51.935)"/>
      <path id="Path_12" data-name="Path 12" class="cls-4" d="M974.638,316.11H823.663a.1.1,0,0,0,.045,0H795.65V211.6h7.935v77.25H839.84V243.1H869.8V207h30.75v36.12H930.5v45.75h44.145Z" transform="translate(-266.615 -65.672)"/>
      <path id="Path_13" data-name="Path 13" class="cls-4" d="M795.65,356.76V460.508h179V356.76Zm227.558,225.863.255-82.125H974.645v-36.75h-179v180.4a410.475,410.475,0,0,0,44.025-.533h.255q10.5-.675,20.9-1.92h.158A384.369,384.369,0,0,0,968.413,613" transform="translate(-266.615 -103.112)"/>
      <path id="Path_14" data-name="Path 14" class="cls-4" d="M1126.8,499.37h41.753c-.36,21.067-4.59,41.76-13.853,60.87a146.956,146.956,0,0,1-31.05,41.887v-66h3.15Z" transform="translate(-348.615 -138.765)"/>
      <path id="Path_15" data-name="Path 15" class="cls-4" d="M1169.633,466.188H1127.85V379.48h22.613C1162.155,406.8,1169.595,436.8,1169.633,466.188Z" transform="translate(-349.665 -108.792)"/>
      <rect id="Rectangle_3" data-name="Rectangle 3" class="cls-4" width="25.282" height="32.767" transform="translate(485.572 174.973)"/>
      <rect id="Rectangle_4" data-name="Rectangle 4" class="cls-4" width="25.282" height="7.545" transform="translate(485.572 242.893)"/>
      <rect id="Rectangle_5" data-name="Rectangle 5" class="cls-4" width="25.282" height="22.013" transform="translate(485.572 253.64)"/>
      <rect id="Rectangle_6" data-name="Rectangle 6" class="cls-4" width="25.282" height="32.767" transform="translate(485.572 310.813)"/>
      <rect id="Rectangle_7" data-name="Rectangle 7" class="cls-4" width="25.282" height="32.767" transform="translate(485.572 378.733)"/>
      <path id="Path_16" data-name="Path 16" class="cls-4" d="M762.983,639.247a3.65,3.65,0,0,1,.75.052,4.236,4.236,0,0,1-.75-.045v7.613H737.7V614.1h25.282Z" transform="translate(-252.128 -167.447)"/>
      <path id="Path_17" data-name="Path 17" class="cls-4" d="M762.983,704.65v25.3q-12.69-1.043-25.282-2.917V704.65Z" transform="translate(-252.128 -190.085)"/>
      <rect id="Rectangle_8" data-name="Rectangle 8" class="cls-4" width="108.352" height="2.407" transform="translate(276.622 354.988)"/>
      <rect id="Rectangle_9" data-name="Rectangle 9" class="cls-4" width="108.352" height="9.225" transform="translate(276.622 360.598)"/>
      <rect id="Rectangle_10" data-name="Rectangle 10" class="cls-4" width="108.352" height="14.835" transform="translate(276.622 400.063)"/>
      <path id="Path_18" data-name="Path 18" class="cls-4" d="M569.2,612.08v14.835h-84.75q-5.535-4.215-10.905-8.655c-2.49-2.047-4.95-4.148-7.448-6.18Z" transform="translate(-184.228 -166.942)"/>
      <path id="Path_19" data-name="Path 19" class="cls-4" d="M590.728,672.17v14.872H581.78q-15.1-6.81-29.58-14.842Z" transform="translate(-205.752 -181.965)"/>
      <rect id="Rectangle_11" data-name="Rectangle 11" class="cls-4" width="21.33" height="21.33" transform="translate(573.06 263.698)"/>
      <rect id="Rectangle_12" data-name="Rectangle 12" class="cls-4" width="21.33" height="21.33" transform="translate(111.225 164.315)"/>
      <rect id="Rectangle_13" data-name="Rectangle 13" class="cls-4" width="21.33" height="21.33" transform="translate(111.225 213.86)"/>
      <rect id="Rectangle_14" data-name="Rectangle 14" class="cls-4" width="21.33" height="21.33" transform="translate(111.225 263.405)"/>
      <rect id="Rectangle_15" data-name="Rectangle 15" class="cls-4" width="21.33" height="21.33" transform="translate(111.225 312.943)"/>
      <rect id="Rectangle_16" data-name="Rectangle 16" class="cls-4" width="21.33" height="21.33" transform="translate(111.225 362.488)"/>
      <rect id="Rectangle_17" data-name="Rectangle 17" class="cls-4" width="21.33" height="21.33" transform="translate(111.225 412.033)"/>
      <rect id="Rectangle_18" data-name="Rectangle 18" class="cls-4" width="21.33" height="21.33" transform="translate(654.487 263.698)"/>
      <rect id="Rectangle_19" data-name="Rectangle 19" class="cls-4" width="21.33" height="21.33" transform="translate(573.06 316.31)"/>
      <rect id="Rectangle_20" data-name="Rectangle 20" class="cls-4" width="21.33" height="21.33" transform="translate(654.487 316.31)"/>
      <rect id="Rectangle_21" data-name="Rectangle 21" class="cls-4" width="21.33" height="21.33" transform="translate(573.06 368.915)"/>
      <rect id="Rectangle_22" data-name="Rectangle 22" class="cls-4" width="21.33" height="21.33" transform="translate(654.487 368.915)"/>
      <rect id="Rectangle_23" data-name="Rectangle 23" class="cls-4" width="21.33" height="21.33" transform="translate(573.06 421.528)"/>
      <rect id="Rectangle_24" data-name="Rectangle 24" class="cls-4" width="21.33" height="21.33" transform="translate(654.487 421.528)"/>
      <rect id="Rectangle_25" data-name="Rectangle 25" class="cls-4" width="21.33" height="21.33" transform="translate(573.06 474.14)"/>
      <rect id="Rectangle_26" data-name="Rectangle 26" class="cls-4" width="21.33" height="21.33" transform="translate(654.487 474.14)"/>
      <path id="Path_20" data-name="Path 20" class="cls-4" d="M838.4,716.085V702.33h21.323v11.8Z" transform="translate(-265.34 -175.585)"/>
      <path id="Path_21" data-name="Path 21" class="cls-4" d="M96.53,316.91v12.2h72.99v-12.2Zm7.267,11.438h-6V317.683h6Zm7.268,0h-6V317.683h6Zm7.253,0h-6V317.683h6Zm7.268,0h-6V317.683h6Zm7.26,0h-6V317.683h6Zm7.268,0h-6V317.683h6Zm7.268,0h-6V317.683h6Zm7.26,0h-6V317.683h6Zm7.26,0h-6V317.683h6Zm7.268,0h-6V317.683h6Z" transform="translate(-91.835 -93.15)"/>
      <path id="Path_22" data-name="Path 22" class="cls-4" d="M96.53,364.27v12.2h72.99v-12.2Zm7.267,11.438h-6V365.043h6Zm7.268,0h-6V365.043h6Zm7.253,0h-6V365.043h6Zm7.268,0h-6V365.043h6Zm7.26,0h-6V365.043h6Zm7.268,0h-6V365.043h6Zm7.268,0h-6V365.043h6Zm7.26,0h-6V365.043h6Zm7.26,0h-6V365.043h6Zm7.268,0h-6V365.043h6Z" transform="translate(-91.835 -104.99)"/>
      <path id="Path_23" data-name="Path 23" class="cls-4" d="M96.53,411.64v12.195h72.99V411.64Zm7.267,11.422h-6V412.4h6Zm7.268,0h-6V412.4h6Zm7.253,0h-6V412.4h6Zm7.268,0h-6V412.4h6Zm7.26,0h-6V412.4h6Zm7.268,0h-6V412.4h6Zm7.268,0h-6V412.4h6Zm7.26,0h-6V412.4h6Zm7.26,0h-6V412.4h6Zm7.268,0h-6V412.4h6Z" transform="translate(-91.835 -116.832)"/>
      <path id="Path_24" data-name="Path 24" class="cls-4" d="M96.53,459v12.2h72.99V459Zm7.267,11.43h-6V459.75h6Zm7.268,0h-6V459.75h6Zm7.253,0h-6V459.75h6Zm7.268,0h-6V459.75h6Zm7.26,0h-6V459.75h6Zm7.268,0h-6V459.75h6Zm7.268,0h-6V459.75h6Zm7.26,0h-6V459.75h6Zm7.26,0h-6V459.75h6Zm7.268,0h-6V459.75h6Z" transform="translate(-91.835 -128.672)"/>
      <path id="Path_25" data-name="Path 25" class="cls-4" d="M97,506.34c.285,1.155.623,2.295.968,3.427v-2.655h6V517.77H100.75c.09.255.188.518.293.75h68.625V506.34Zm14.25,11.43h-6V507.113h6Zm7.252,0h-6V507.113h6Zm7.268,0h-6V507.113h6Zm7.26,0h-6V507.113h6Zm7.267,0h-6V507.113h6Zm7.268,0h-6V507.113h6Zm7.26,0h-6V507.113h6Zm7.26,0h-6V507.113h6Zm7.267,0h-6V507.113h6Z" transform="translate(-91.952 -140.507)"/>
      <path id="Path_26" data-name="Path 26" class="cls-4" d="M119.54,553.7c.195.24.375.51.563.75h3.967v5.122l1.283,1.5V554.42h6v10.755h-2.468c.24.247.473.51.75.75h45.623V553.7Zm19.095,11.475h-6v-10.71h6Zm7.268,0h-6v-10.71h6Zm7.267,0h-6v-10.71h6Zm7.26,0h-6v-10.71h6Zm7.26,0h-6v-10.71h6Zm7.268,0h-6v-10.71h6Z" transform="translate(-97.588 -152.347)"/>
      <path id="Path_27" data-name="Path 27" class="cls-4" d="M172.93,601.06c.69.39,1.387.75,2.085,1.133v-.375h6V605.2c.435.188.848.39,1.275.585v-3.968h6v6.495a2.428,2.428,0,0,0,.353.128v-7.38Z" transform="translate(-110.935 -164.187)"/>
      <path id="Path_28" data-name="Path 28" class="cls-4" d="M682,315.04ZM635.8,536.4ZM587.6,423.775c.143.48.27.96.4,1.433h0C587.883,424.735,587.748,424.255,587.6,423.775ZM682,315.04Zm-453-112.3v3.2h33.5v-3.21ZM635.807,536.4ZM587.6,423.775c.143.48.27.96.4,1.433h0C587.883,424.735,587.748,424.255,587.6,423.775ZM682,315.04ZM635.8,536.4ZM587.6,423.775c.143.48.27.96.4,1.433h0C587.883,424.735,587.748,424.255,587.6,423.775Z" transform="translate(-124.953 -64.602)"/>
    </g>
    <g id="undraw_personal_notes_8n63" transform="translate(516.914 389.824)">
      <ellipse id="Ellipse_21" data-name="Ellipse 21" class="cls-5" cx="43.112" cy="48.894" rx="43.112" ry="48.894" transform="translate(92.953 171.521)"/>
      <path id="Path_259" data-name="Path 259" class="cls-6" d="M728.6,236.649a70.343,70.343,0,0,0,32.934,5.7,14.6,14.6,0,0,1-5.505-8.863,24.846,24.846,0,0,1,.311-10.587,1.729,1.729,0,0,0-.023-1.222,1.687,1.687,0,0,0-1.316-.627c-4.367-.608-16.875-3.247-20.2.491-1.575,1.772-.975,5.212-1.548,7.376C733.011,229.818,729.971,237.251,728.6,236.649Z" transform="translate(-647.871 -178.929)"/>
      <path id="Path_260" data-name="Path 260" class="cls-7" d="M728.6,236.649a70.343,70.343,0,0,0,32.934,5.7,14.6,14.6,0,0,1-5.505-8.863,24.846,24.846,0,0,1,.311-10.587,1.729,1.729,0,0,0-.023-1.222,1.687,1.687,0,0,0-1.316-.627c-4.367-.608-16.875-3.247-20.2.491-1.575,1.772-.975,5.212-1.548,7.376C733.011,229.818,729.971,237.251,728.6,236.649Z" transform="translate(-647.871 -178.929)"/>
      <path id="Path_261" data-name="Path 261" class="cls-8" d="M540.1,402.75l64.793,1.994s57.317,55.822,9.968,72.768c0,0-58.314,9.469-72.27-1.5C542.595,476.017,525.151,407.236,540.1,402.75Zm2.99,18.441,69.279,4.486s-4.984-16.946-24.92-16.946-42.365-4.486-44.359,5.981S543.093,421.191,543.093,421.191Z" transform="translate(-422.976 -270.803)"/>
      <path id="Path_262" data-name="Path 262" class="cls-6" d="M599.328,384.42c3.232-.494,6.746-.78,9.576.856a15.252,15.252,0,0,1,2.609,2.059q1.707,1.567,3.389,3.163a5.486,5.486,0,0,1,1.887,2.746c.433,2.285-2.206,4.125-4.53,4.035s-4.409-1.366-6.6-2.135c-4.419-1.549-20.672,1.1-21.56-3.66C582.968,385.434,595.734,384.993,599.328,384.42Z" transform="translate(-431.121 -261.416)"/>
      <path id="Path_263" data-name="Path 263" class="cls-9" d="M650.085,374.931a36.664,36.664,0,0,0,13.551,3.847,5.711,5.711,0,0,1,2.144.456,2.166,2.166,0,0,1,.894,1.088A32.342,32.342,0,0,1,669.7,391.38a.987.987,0,0,1-.35,1.01,3.109,3.109,0,0,1-1.465.328q-11.631.739-23.34.793a2.435,2.435,0,0,1-1.016-.138.951.951,0,0,1-.467-.578,35.365,35.365,0,0,1-2.535-14.345C640.733,372.673,642.425,370.865,650.085,374.931Z" transform="translate(-512.166 -255.747)"/>
      <path id="Path_264" data-name="Path 264" class="cls-10" d="M650.085,374.931a36.664,36.664,0,0,0,13.551,3.847,5.711,5.711,0,0,1,2.144.456,2.166,2.166,0,0,1,.894,1.088A32.342,32.342,0,0,1,669.7,391.38a.987.987,0,0,1-.35,1.01,3.109,3.109,0,0,1-1.465.328q-11.631.739-23.34.793a2.435,2.435,0,0,1-1.016-.138.951.951,0,0,1-.467-.578,35.365,35.365,0,0,1-2.535-14.345C640.733,372.673,642.425,370.865,650.085,374.931Z" transform="translate(-512.166 -255.747)"/>
      <path id="Path_265" data-name="Path 265" class="cls-5" d="M696.135,393.153l85.229-2.99-19.933-84.235s-79.746-5.981-77.753,14.454S696.135,393.153,696.135,393.153Z" transform="translate(-645.301 -221.83)"/>
      <path id="Path_266" data-name="Path 266" class="cls-5" d="M552.073,528.146s51.3,9.075,69.737-17.836-69.778-12.46-69.778-12.46l-7.476,20.434Z" transform="translate(-418.957 -316.56)"/>
      <circle id="Ellipse_22" data-name="Ellipse 22" class="cls-5" cx="23.425" cy="23.425" r="23.425" transform="translate(125.102 278.978)"/>
      <ellipse id="Ellipse_23" data-name="Ellipse 23" class="cls-8" cx="14.703" cy="16.946" rx="14.703" ry="16.946" transform="translate(131.581 285.458)"/>
      <path id="Path_267" data-name="Path 267" class="cls-8" d="M842.306,299.432s19.438-10.965,20.435,14.952L879.185,435H872.21L853.271,305.911s-9.469,1.5-10.965,1.5S842.306,299.432,842.306,299.432Z" transform="translate(-821.872 -217.825)"/>
      <path id="Path_268" data-name="Path 268" class="cls-5" d="M896.743,312.741h0a4.661,4.661,0,0,0,6.324,3.041l22.551-9.644-4.09-9.01L899.3,307.254a4.662,4.662,0,0,0-2.561,5.487Z" transform="translate(-895.677 -217.825)"/>
      <path id="Path_269" data-name="Path 269" class="cls-8" d="M517.585,556.608s35.886-3.987,45.854,30.4,8.971,60.806,17.444,58.813,26.416-8.971,26.416-8.971L605.8,647.317s-31.4,15.95-36.384-1-7.975-79.246-36.384-77.753-33.394-1.5-33.394-1.5Z" transform="translate(-379.525 -347.905)"/>
      <path id="Path_270" data-name="Path 270" class="cls-8" d="M431.642,523.75s27.911,3.489,38.876,23.925,16.448,57.317,16.448,57.317H476.5s-5.981-73.267-37.381-69.279Z" transform="translate(-225.3 -331.495)"/>
      <path id="Path_271" data-name="Path 271" class="cls-5" d="M445.978,711.118l44.359-27.412s2.492-9.968-25.917-13.955c0,0-53.712,18.785-48.537,25.84S438.5,713.61,445.978,711.118Z" transform="translate(-220.696 -404.727)"/>
      <path id="Path_272" data-name="Path 272" class="cls-8" d="M454.979,465v58.314H448.5V464Z" transform="translate(-298.478 -247.821)"/>
      <path id="Path_273" data-name="Path 273" class="cls-5" d="M640.793,645.75s-12.46,48.844-4.486,55.823c0,0,10.466-30.9,18.441-26.915l-2.492-28.908Z" transform="translate(-493.762 -392.689)"/>
      <circle id="Ellipse_24" data-name="Ellipse 24" class="cls-6" cx="19.438" cy="19.438" r="19.438" transform="translate(79.247 10.833)"/>
      <path id="Path_274" data-name="Path 274" class="cls-9" d="M722.14,251.119c-7.927,1.35-14.775-7.869-22.714-6.573a15.245,15.245,0,0,0-4.881,1.921,48.424,48.424,0,0,0-23.339,31.26c-.9,4-1.244,8.333.445,12.066a22.939,22.939,0,0,0,3.737,5.33c5.28,6.14,11.074,12.259,18.607,15.23.736,2.55.029,5.309-.853,7.81-3.684,10.446,2.175,21.7,2.475,32.775.051,1.894-.006,3.969,1.178,5.448,1.315,1.642,3.661,1.933,5.761,2.051,19.247,1.085,38.466-1.868,57.517-4.812a2.891,2.891,0,0,0,1.4-.473,3.353,3.353,0,0,0,.855-2.185c.706-4.183-3.008-7.575-1.247-11.436,3.029-6.636-3.578-13.892-5.482-20.933s-2.656-8.279-3.987-15.45c-.5-2.681.937-10.766.5-13.457-1.43-8.793-.349-18.808-4.984-26.416-2.785-4.57-2.062-8.125-7.032-10.112C734.846,251.066,727.75,251.772,722.14,251.119Z" transform="translate(-619.778 -191.387)"/>
      <path id="Path_275" data-name="Path 275" class="cls-11" d="M523.879,474.284c5.8,1.119,11.964,2.186,16.43,6.057,2.727,2.364,4.561,5.569,6.341,8.708l18.167,32.031c5.541,9.769,11.084,19.543,16.108,29.588a5.334,5.334,0,0,1,.75,2.406,4.908,4.908,0,0,1-1.65,3.1,26.5,26.5,0,0,1-22.431,7.887c-1.25-6.47-7.4-10.747-10.414-16.607-1.657-3.22-2.325-6.841-3.391-10.3-3.988-12.9-13.455-23.266-22.65-33.162-4.344-4.677-8.791-9.436-14.387-12.5-6.566-3.6-14.186-4.6-21.525-6.092s-14.932-3.763-20.123-9.158a21.611,21.611,0,0,1-5.755-17.6c4.7-.328,9.932-.94,14.467.571,5.266,1.756,10.36,4.156,15.635,5.949a259.754,259.754,0,0,0,34.425,9.13Z" transform="translate(-333.731 -298.631)"/>
      <path id="Path_276" data-name="Path 276" class="cls-10" d="M523.879,474.284c5.8,1.119,11.964,2.186,16.43,6.057,2.727,2.364,4.561,5.569,6.341,8.708l18.167,32.031c5.541,9.769,11.084,19.543,16.108,29.588a5.334,5.334,0,0,1,.75,2.406,4.908,4.908,0,0,1-1.65,3.1,26.5,26.5,0,0,1-22.431,7.887c-1.25-6.47-7.4-10.747-10.414-16.607-1.657-3.22-2.325-6.841-3.391-10.3-3.988-12.9-13.455-23.266-22.65-33.162-4.344-4.677-8.791-9.436-14.387-12.5-6.566-3.6-14.186-4.6-21.525-6.092s-14.932-3.763-20.123-9.158a21.611,21.611,0,0,1-5.755-17.6c4.7-.328,9.932-.94,14.467.571,5.266,1.756,10.36,4.156,15.635,5.949a259.754,259.754,0,0,0,34.425,9.13Z" transform="translate(-333.731 -298.631)"/>
      <path id="Path_277" data-name="Path 277" class="cls-8" d="M456.945,675.272a4.079,4.079,0,0,1,1.431,1.848c.66,2.25-2.153,3.832-4.4,4.48-5.058,1.456-10.454,2.915-15.5,1.415-3.094-.92-5.786-2.891-8.86-3.876-4.562-1.462-9.5-.632-14.218.211a30.773,30.773,0,0,1,2.039-17.565c1.513-3.49,7.569-5.189,11.175-5.342,3.941-.167,5.31,2.741,7.586,5.417C441.734,668.379,450.562,669.89,456.945,675.272Z" transform="translate(-188.475 -398.049)"/>
      <path id="Path_278" data-name="Path 278" class="cls-11" d="M622.153,484.523c2.789,1.109,5.648,2.263,7.835,4.319,2.309,2.169,3.661,5.145,4.894,8.064a225.2,225.2,0,0,1,9.287,26.487c1.284,4.554,2.429,9.161,4.159,13.565,3.45,8.79,9.312,17.209,8.762,26.636a6.317,6.317,0,0,1-.892,3.254,7.48,7.48,0,0,1-3.375,2.286l-6.627,2.878c-3.556,1.544-7.9,3.029-11.073.807-2.126-1.487-2.976-4.184-3.617-6.7-2.317-9.08-3.75-18.51-7.9-26.911-4.691-9.495-12.622-17.168-16.82-26.891a9.342,9.342,0,0,0-2.325-3.792,8.235,8.235,0,0,0-3.423-1.35c-24.892-5.668-50.344-8.768-75.036-15.249-3.511-.921-7.183-2.015-9.687-4.642-3.473-3.642-3.782-9.179-3.893-14.21-.07-3.15-.055-6.577,1.865-9.075,2.166-2.82,6.05-3.565,9.587-3.937,13.564-1.425,26.074.82,39.433,2.467,12.225,1.506,24.533,8.405,35.935,12.913Q610.7,479.969,622.153,484.523Z" transform="translate(-435.71 -299.322)"/>
      <path id="Path_279" data-name="Path 279" class="cls-8" d="M518.187,681.481c1.865,4.425,3.876,9.049,7.657,12.011,1.58,1.237,3.623,2.475,3.686,4.481.067,2.122-2.161,3.525-4.159,4.243-5.086,1.835-10.875,2.227-15.836.08-3.394-1.469-6.193-4.006-8.925-6.5a7.043,7.043,0,0,1-2.06-2.588,6.7,6.7,0,0,1-.232-2.718,69.662,69.662,0,0,1,2.941-16.318c.126-.417,10.85-1.753,11.8-1.505C516.058,673.45,517.033,678.739,518.187,681.481Z" transform="translate(-301.075 -406.176)"/>
      <path id="Path_280" data-name="Path 280" class="cls-8" d="M674.1,432.75l64.793,1.993s57.317,55.822,9.968,72.768c0,0-58.314,9.469-72.27-1.5C676.595,506.017,659.151,437.236,674.1,432.75Zm2.99,18.441,69.279,4.486s-4.984-16.946-24.92-16.946-42.365-4.486-44.359,5.981S677.093,451.191,677.093,451.191Z" transform="translate(-623.763 -285.85)"/>
      <ellipse id="Ellipse_25" data-name="Ellipse 25" class="cls-5" cx="65.043" cy="73.765" rx="65.043" ry="73.765" transform="translate(0 178.299)"/>
      <ellipse id="Ellipse_26" data-name="Ellipse 26" class="cls-8" cx="49.094" cy="54.825" rx="49.094" ry="54.825" transform="translate(12.958 197.239)"/>
      <path id="Path_281" data-name="Path 281" class="cls-5" d="M768.026,578.077a14.6,14.6,0,0,1,.284-2.85L731.642,556.9l2.492-5.482,37.042,18.046a7.727,7.727,0,0,1,1.231-1.028l-.029.006-10.832-53.909,9.581-.217,6.369,53.05-.611.128a5.977,5.977,0,0,1,1.425.488l32.036-32.883,4.528,6.349L781.96,571.723a13.242,13.242,0,0,1,1.457,5.1l46.409,18.943,1,7.975L782.448,583.4a10.573,10.573,0,0,1-1.891,3.055l14.878,50.688h-5.483l-12.49-48.62a5.692,5.692,0,0,1-1.715.275,5.943,5.943,0,0,1-3.168-.95l-25.989,34.343-7.975-5.483,30.45-33.262A13.937,13.937,0,0,1,768.026,578.077Z" transform="translate(-718.684 -326.761)"/>
      <path id="Path_282" data-name="Path 282" class="cls-5" d="M758.646,155.98c-.878-2.205-3.709-3.117-4.637-5.3-1-2.35.566-5.338-.791-7.5s-4.554-1.923-7.091-1.5c-2.995.5-6.18.831-8.974-.358-1.243-.525-2.345-1.336-3.549-1.95a12.534,12.534,0,0,0-6.185-1.345,2.806,2.806,0,0,0-1.388.331,2.6,2.6,0,0,0-.9,1.162c-.874,1.893-1,4.255-2.581,5.613a10.81,10.81,0,0,1-2.657,1.377,11.5,11.5,0,0,0-6.45,11.475,23.326,23.326,0,0,1,.392,3.286c-.062,2.423-1.646,4.844-.837,7.13.6,1.7,2.361,2.7,4.085,3.225a2.345,2.345,0,0,0,1.542.075c.884-.358,1.061-1.495,1.344-2.407a5.9,5.9,0,0,1,5.723-4.025c2.011.085,4.045,1.214,5.941.543a7.907,7.907,0,0,0,2.407-1.7,11.918,11.918,0,0,1,6-3.059,6.41,6.41,0,0,1,6.075,2.29c.536.75.86,1.625,1.372,2.39C752.077,172.593,760.543,160.741,758.646,155.98Z" transform="translate(-637.371 -138.015)"/>
      <path id="Path_283" data-name="Path 283" class="cls-6" d="M722.3,411.316a5.288,5.288,0,0,1,4.626,1.725c4.361,3.975,8.984,8.452,9.774,14.3a2.407,2.407,0,0,1-.181,1.583,2.459,2.459,0,0,1-2.149.853A14.3,14.3,0,0,1,723.556,425a8.292,8.292,0,0,0-2.46-2.3,6.412,6.412,0,0,0-2.938-.364c-2.736.089-8.984,1.49-11.369.133-2.508-1.425-1.819-5.9-.647-8.058C708.926,409.285,717.557,411.265,722.3,411.316Z" transform="translate(-611.377 -274.89)"/>
      <path id="Path_284" data-name="Path 284" class="cls-9" d="M758.061,312.941c-1.676,5.391-.695,11.464-3.069,16.586-1.575,3.4-4.54,6.14-5.458,9.774-.867,3.433.295,7.133,2.332,10.029a33.191,33.191,0,0,0,7.725,7.227,37.632,37.632,0,0,0,10.024,5.807c3.671,1.247,7.586,1.432,11.45,1.61l25.609,1.174L811.386,351,794.7,344.468a18.012,18.012,0,0,0-5.161-1.448c-3.088-.225-6.856.905-8.839-1.473a6.441,6.441,0,0,1-1.166-2.961c-1.618-8.307-.21-17.1-2.7-25.185-1.233-4-4.79-12.034-9.643-12.74C762.052,299.915,759.225,309.2,758.061,312.941Z" transform="translate(-708.021 -219.576)"/>
    </g>
    <g id="undraw_medicine_b1ol" transform="translate(340.372 267.507)">
      <ellipse id="Ellipse_12" data-name="Ellipse 12" class="cls-4" cx="73.08" cy="11.738" rx="73.08" ry="11.738" transform="translate(14.723 424.748)"/>
      <path id="Path_150" data-name="Path 150" class="cls-2" d="M480.98,507.158l-1.62,6.9s-12.975-6.622-15.315-15.037,3.915-11.61,3.915-11.61l12.09,5.122Z" transform="translate(-339.043 -304.328)"/>
      <path id="Path_151" data-name="Path 151" class="cls-10" d="M480.98,507.158l-1.62,6.9s-12.975-6.622-15.315-15.037,3.915-11.61,3.915-11.61l12.09,5.122Z" transform="translate(-339.043 -304.328)"/>
      <path id="Path_152" data-name="Path 152" class="cls-2" d="M379.925,817.742s-12,4.41-20.25,4.965c-4.38.293-6.682-2.392-7.867-4.98a15.076,15.076,0,0,1-1.238-4.538l1.073-11.888.57-6.33,17.527-4.552,2.483,7.59.232.578c1,2.535,4.995,12.847,4.875,15a4.1,4.1,0,0,0,1.23,2.963A7.127,7.127,0,0,0,379.925,817.742Z" transform="translate(-310.805 -380.08)"/>
      <path id="Path_153" data-name="Path 153" class="cls-2" d="M481.044,811.435a3,3,0,0,1-.105,1.073s-25.665,4.283-30.915,0a13.905,13.905,0,0,0-10.8-3.165s-9.93.27-11.588-3c-.69-1.372-.51-4.035-.083-6.66a63.458,63.458,0,0,1,1.74-7.283l.4-.315,2.362-1.9,27.66-.818h.21c-.135,5.655,9.39,12.142,9.39,12.142C479.431,805.263,480.924,809.5,481.044,811.435Z" transform="translate(-329.956 -379.818)"/>
      <path id="Path_154" data-name="Path 154" class="cls-10" d="M481.045,814.872a3.059,3.059,0,0,1-.112,1.073s-25.657,4.283-30.907,0a13.906,13.906,0,0,0-10.793-3.165s-9.937.27-11.588-3c-.69-1.38-.518-4.035-.09-6.66,3.825.383,9.863,1.335,12.233,3.608,3.585,3.457,9.66,6.907,13.388,7.177C456.093,814.093,473.545,814.647,481.045,814.872Z" transform="translate(-329.958 -383.255)"/>
      <path id="Path_155" data-name="Path 155" class="cls-10" d="M380.34,826.465s-12,4.41-20.25,4.965c-4.38.293-6.682-2.392-7.86-4.987,3.053,1.027,7.29,2.108,9.518,1.117,2.64-1.17,12-1.927,17.25-2.25A7.382,7.382,0,0,0,380.34,826.465Z" transform="translate(-311.22 -388.802)"/>
      <path id="Path_156" data-name="Path 156" class="cls-12" d="M406.8,338c-9.9-3.847-22.635-16.56-19.455-22.5a13.291,13.291,0,0,0,1.238-4.77,43.556,43.556,0,0,0,.09-6.75A92.427,92.427,0,0,0,387.344,293s30.907.7,29.107,5.25a17.02,17.02,0,0,0-.465,6.247c.143,2.6.518,5.527.908,8.01.54,3.405,1.08,6,1.08,6s-1.89,2.648-3,2.79S421,343.483,406.8,338Z" transform="translate(-319.874 -255.725)"/>
      <path id="Path_157" data-name="Path 157" class="cls-10" d="M372.783,798.588l-.233.255c-9.24-11.175-20.415,2.753-20.415,2.753l-.165-.293.57-6.33,17.528-4.552,2.482,7.59Z" transform="translate(-311.155 -380.08)"/>
      <path id="Path_158" data-name="Path 158" class="cls-10" d="M460.642,790.148s-6.75-.143-10.35,3.038-21,.69-20.25,0a2.468,2.468,0,0,0,.39-1.14l2.362-1.9,27.66-.818C460.56,789.833,460.642,790.148,460.642,790.148Z" transform="translate(-330.667 -379.807)"/>
      <path id="Path_159" data-name="Path 159" class="cls-13" d="M381.735,668.473a20.867,20.867,0,0,0-1.14,3.847,44.03,44.03,0,0,0-.518,10.92c.278,5.25,0,40.432,0,40.432s-5.932,9.383-9.24,12.69,6.75,9.247,6.75,9.247c1.5,8.55-7.59,18.21-7.59,18.21-9.24-11.175-20.415,2.76-20.415,2.76s-6.075-10.5-7.59-14.25,5.932-6.345,8.55-7.868-.128-10.5-.128-10.5-2.212-7.867-4.837-15.045,2.895-42.908,2.895-42.908.285-6.345.968-8.557a14.312,14.312,0,0,0,.2-4.86c-.045-.547-.1-1.005-.135-1.312s-.067-.45-.067-.45l.1-.18,3.75-6.99S383.535,664.07,381.735,668.473Z" transform="translate(-308.61 -345.89)"/>
      <path id="Path_160" data-name="Path 160" class="cls-13" d="M457.94,757.85s-6.75-.143-10.35,3-21,.69-20.25,0,.69-5.8.69-5.8c-10.207-13.935-1.5-19.59-1.5-19.59s-4.56-21.937-5.385-30.075c-.577-5.685-1.29-20.963-1.673-29.685-.165-3.75-.263-6.33-.263-6.33l8.34-1.68,1.072-.218,20.115-4.035s.555,3.75.93,6.818a31.874,31.874,0,0,1,.315,3.953c-.135,1.5,0,6.2,0,6.2l.682,14.078a15.991,15.991,0,0,0-.682,4.552c.135,1.792,2.753,27.458,2.753,27.458s4.552,15.315,3,16.417S457.94,757.85,457.94,757.85Z" transform="translate(-327.965 -348.335)"/>
      <path id="Path_161" data-name="Path 161" class="cls-10" d="M416.618,298.25a17.02,17.02,0,0,0-.465,6.247,25.688,25.688,0,0,1-27.315-.51A92.436,92.436,0,0,0,387.51,293S418.418,293.682,416.618,298.25Z" transform="translate(-320.04 -255.725)"/>
      <path id="Path_162" data-name="Path 162" class="cls-14" d="M425.145,269.346a25.4,25.4,0,0,1-1.26,7.957,25.665,25.665,0,0,1-50.055-7.342v-.615a25.663,25.663,0,1,1,51.327,0Z" transform="translate(-316.62 -243.395)"/>
      <path id="Path_163" data-name="Path 163" class="cls-10" d="M406.8,343.91c-9.9-3.847-22.635-16.56-19.455-22.5a13.292,13.292,0,0,0,1.238-4.77l13.552,11.138,8.385,6.878,6.375-16.23c.54,3.405,1.08,6,1.08,6s-1.89,2.648-3,2.79S421,349.393,406.8,343.91Z" transform="translate(-319.874 -261.635)"/>
      <path id="Path_164" data-name="Path 164" class="cls-13" d="M391.508,334.105,380.19,524.23l-14.76.967L327.21,414.955l6.27-130.883,1.32-27.653,17,13.958,8.392,6.877,6.563-16.7,12.2,10.635Z" transform="translate(-269.535 -202.607)"/>
      <path id="Path_165" data-name="Path 165" class="cls-10" d="M384.288,668.492a20.864,20.864,0,0,0-1.14,3.847,108.751,108.751,0,0,1-30.945-9.667l-.2-.1.067-1.208.038-.63,3.75-6.99S386.088,664.09,384.288,668.492Z" transform="translate(-311.163 -345.91)"/>
      <path id="Path_166" data-name="Path 166" class="cls-10" d="M427.708,676.225a75.943,75.943,0,0,1-8.295.945c-.165-3.75-.263-6.33-.263-6.33l8.34-1.68Z" transform="translate(-327.95 -349.765)"/>
      <path id="Path_167" data-name="Path 167" class="cls-10" d="M452.745,670.308c-5.332,1.388-13.567,2.948-20.94,1.972l-.1-4.755,20.115-4.035S452.37,667.2,452.745,670.308Z" transform="translate(-331.088 -348.348)"/>
      <path id="Path_168" data-name="Path 168" class="cls-10" d="M399.245,586.029c-30.75,5.25-58.913-9.8-58.913-9.8l.27-5.1s.7-57.817-1.238-62.25-3.442-26.91-2.348-30.36-4-55.185-4-55.185l-.825-21L302,390.1l13.5-28.14a101.562,101.562,0,0,0,4.7-12.15c2.348-7.3,13.245-14.482,13.245-14.482s11.175-7.17,15.592-6.9,10.208-6.345,10.208-6.345c4.275-10.9,8.145-5.962,8.145-5.962a9.736,9.736,0,0,1-.21,1.612c-1.5,11.962,24.255,49.763,24.622,50.43h0l2.453,59.745,2.483,75.608Z" transform="translate(-298.663 -261.226)"/>
      <path id="Path_169" data-name="Path 169" class="cls-2" d="M398.138,586.013c-30.75,5.25-58.92-9.8-58.92-9.8l.277-5.1s.7-57.817-1.245-62.25-3.443-26.91-2.34-30.36-4-55.185-4-55.185l-.832-21-30.21-12.277,13.5-28.14a103.121,103.121,0,0,0,4.7-12.15c2.34-7.3,13.245-14.482,13.245-14.482s11.175-7.17,15.585-6.9,10.207-6.345,10.207-6.345c4.282-10.9,9-5.963,9-5.963,0,.518-.45.75-.21,1.613,3.3,11.6,23.43,49.763,23.8,50.43h0l2.483,59.745,2.483,75.608Z" transform="translate(-298.38 -261.211)"/>
      <path id="Path_170" data-name="Path 170" class="cls-10" d="M410.068,370.383C406.76,369,389.24,349,389.24,349v-4.552c-.638-1.5-4.425-.585-7.5.465l1.32-27.652,1.5,1.245C387.845,330.1,409.685,369.715,410.068,370.383Z" transform="translate(-318.598 -261.79)"/>
      <path id="Path_171" data-name="Path 171" class="cls-2" d="M411.175,368.173c-3.315-1.38-20.835-21.383-20.835-21.383v-4.553c-.638-1.5-4.425-.585-7.5.465l1.327-27.652,1.5,1.245C388.96,327.89,410.808,367.512,411.175,368.173Z" transform="translate(-318.873 -261.237)"/>
      <path id="Path_172" data-name="Path 172" class="cls-10" d="M352.548,518.155c.412,0,21.383-2.205,21.383-2.205s12.7,24.967,11.865,31.043-2.34,11.453-7.447,10.5-27.487.75-27.487.75Z" transform="translate(-310.878 -311.462)"/>
      <path id="Path_173" data-name="Path 173" class="cls-2" d="M351.438,515.945c.413,0,21.383-2.205,21.383-2.205s12.69,24.975,11.865,31.042-2.348,11.452-7.448,10.5-27.488.75-27.488.75Z" transform="translate(-310.6 -310.91)"/>
      <path id="Path_174" data-name="Path 174" class="cls-14" d="M369.247,501.05s19.245,10.342,19.657,13.5-9.795-1.38-12-1.927a27.454,27.454,0,0,0-4.417-.69l-14.708.4Z" transform="translate(-312.607 -307.738)"/>
      <circle id="Ellipse_14" data-name="Ellipse 14" class="cls-10" cx="2.025" cy="2.025" r="2.025" transform="translate(84.075 105.833)"/>
      <circle id="Ellipse_15" data-name="Ellipse 15" class="cls-8" cx="2.025" cy="2.025" r="2.025" transform="translate(84.075 105.008)"/>
      <circle id="Ellipse_16" data-name="Ellipse 16" class="cls-10" cx="2.025" cy="2.025" r="2.025" transform="translate(87.803 193.493)"/>
      <circle id="Ellipse_17" data-name="Ellipse 17" class="cls-8" cx="2.025" cy="2.025" r="2.025" transform="translate(87.803 192.66)"/>
      <circle id="Ellipse_18" data-name="Ellipse 18" class="cls-10" cx="2.025" cy="2.025" r="2.025" transform="translate(86.093 149.663)"/>
      <circle id="Ellipse_19" data-name="Ellipse 19" class="cls-8" cx="2.025" cy="2.025" r="2.025" transform="translate(86.093 148.838)"/>
      <path id="Path_175" data-name="Path 175" class="cls-2" d="M464.685,465.965s1.38,2.07,0,3.037.135,3.307.135,3.307-3.443,2.017-1.927,3.832.555,10.013.555,10.013l-4.14,6.855s.247,4.417.263,10.387c0,9.315-.547,22.41-3.578,28.38l.42,48.983s-14.5,5.295-26.633,3.682l-1.8-78.6s2.625-44.573,3.593-53.123a89.017,89.017,0,0,0,.69-13.388s-.412-13.38-1.8-19.59c0,0-1.5-26.9-1.65-34.35-.068-3.562.12-13.958.33-23.843.232-10.808.495-21,.495-21L426.9,318.89s2.737-.278,3.563.825a7.894,7.894,0,0,0,1.2.922h0c4.725,3.2,21.42,13.02,21.42,13.02s9.24,3.675,11.452,8.94,3.75,9,4.823,10.5,1.658,8.55,1.658,8.55,3.18,12.975,5.662,15.173,4.3,16.177,4.3,16.177l-21.937,17.25s-1.928,28.7-2.34,29.805S464.685,465.965,464.685,465.965Z" transform="translate(-329.888 -262.19)"/>
      <path id="Path_176" data-name="Path 176" class="cls-2" d="M465.5,465.885s1.372,2.07,0,3.038.128,3.307.128,3.307-3.42,2.04-1.92,3.855.555,10.012.555,10.012l-4.14,6.855s.247,4.417.27,10.387c0,9.315-.547,22.41-3.577,28.38l.412,48.982s-14.52,5.3-26.64,3.682l-1.792-78.6s2.625-44.573,3.593-53.122a88.194,88.194,0,0,0,.682-13.388s-.413-13.38-1.793-19.59c0,0-1.5-26.9-1.657-34.35-.068-3.562.128-13.958.33-23.843.232-10.807.495-21,.495-21L426.83,318.54s3.615,0,4.448,1.117a7.116,7.116,0,0,0,1.2.922h0c4.725,3.2,21.427,13.02,21.427,13.02s9.233,3.675,11.445,8.94,3.75,9,4.83,10.5,1.65,8.55,1.65,8.55,3.18,12.975,5.662,15.173,4.275,16.147,4.275,16.147L459.83,410.16s-1.927,28.695-2.348,29.8S465.5,465.885,465.5,465.885Z" transform="translate(-329.87 -262.11)"/>
      <path id="Path_177" data-name="Path 177" class="cls-10" d="M439.505,347.408l1.98,5.775-10.425,10.5c.233-10.8.5-21,.5-21L427.94,320.73s3.615,0,4.448,1.117a6.841,6.841,0,0,0,1.2.915h0l8.865,25.575Z" transform="translate(-330.147 -262.658)"/>
      <path id="Path_178" data-name="Path 178" class="cls-2" d="M438.4,345.2l1.987,5.775-10.425,10.5c.232-10.808.495-21,.495-21L426.83,318.52s3.622,0,4.448,1.117a7.5,7.5,0,0,0,1.2.923h0l8.872,25.567Z" transform="translate(-329.87 -262.105)"/>
      <path id="Path_179" data-name="Path 179" class="cls-10" d="M425.145,269.346a25.4,25.4,0,0,1-1.26,7.957,1.072,1.072,0,0,1-.81-.2c-.2-6.75-3.518-13.087-7.605-18.48a19.416,19.416,0,0,0-4.125-4.275,8.07,8.07,0,0,0-5.595-1.583c-2.25.307-4.237,1.837-6.51,2.033-3,.247-5.685-1.83-8.662-1.935a8.512,8.512,0,0,0-6.367,2.955,17.467,17.467,0,0,0-3.413,6.33,37.037,37.037,0,0,0-1.9,10.92c-.038,2.1-.24,4.732-2.19,5.5a11.205,11.205,0,0,0-2.828-8.557l-.045-.045v-.615a25.663,25.663,0,0,1,51.326,0Z" transform="translate(-316.62 -243.396)"/>
      <path id="Path_181" data-name="Path 181" class="cls-10" d="M310.08,429.62l-7.837-14.49-2.483,22.357s1.38,9.93,1.1,11.453,5.655,15.172,5.655,15.172,19.6,34.905,27.6,36.705l27.038-19.32-7.17-9.105s-2.482-.968-3.1,0c0,0-13.312-22.905-14.693-24.562s-1.11-4.965-1.11-4.965-2.07-2.205-1.38-4.275-4-9.247-4-9.247l4.275-4Z" transform="translate(-298.102 -286.258)"/>
      <path id="Path_182" data-name="Path 182" class="cls-2" d="M302.1,412.93l-2.07,1.65-2.483,22.357s1.38,9.93,1.1,11.453,5.662,15.172,5.662,15.172,19.59,34.905,27.593,36.705l27.045-19.32-7.177-9.105s-2.483-.968-3.105,0c0,0-13.312-22.905-14.692-24.562s-1.1-4.965-1.1-4.965-2.07-2.205-1.38-4.275-4.005-9.247-4.005-9.247l4.275-4Z" transform="translate(-297.55 -285.707)"/>
      <path id="Path_183" data-name="Path 183" class="cls-10" d="M469.674,525.258c1.5,1.823.555,10.005.555,10.005l-4.14,6.855s.247,4.425.262,10.388l-6.96,2.175a4.132,4.132,0,0,1-5.362-4.072l1.2-38.707,16.237,6.21c-1.38.96.135,3.315.135,3.315S468.159,523.435,469.674,525.258Z" transform="translate(-336.669 -310.45)"/>
      <path id="Path_184" data-name="Path 184" class="cls-2" d="M470.782,524.15c1.5,1.823.555,10.012.555,10.012l-4.14,6.855s.247,4.417.27,10.387l-7.087,2.213a4.05,4.05,0,0,1-5.25-3.99l1.207-38.828,16.245,6.21c-1.388.96.128,3.307.128,3.307S469.282,522.335,470.782,524.15Z" transform="translate(-336.944 -310.175)"/>
      <path id="Path_185" data-name="Path 185" class="cls-14" d="M478.84,501.987s-1.1,7.043-3.863,7.455-4,11.393-6.75,11-.93-10.207-.832-12.113-3-9.8-.682-11.588,9.652,0,9.652,0Z" transform="translate(-339.625 -306.462)"/>
      <path id="Path_186" data-name="Path 186" class="cls-10" d="M483.769,428.19l5.205-10.5s2.07,8,2.07,12.278,2.9,4.7,2.9,4.7,3.172,3.75,1.5,6.48-2.348,9.525-2.348,9.525.548,12.968-1.935,14.76-3,6.075-3,6.075-4.56,8.137-4.417,10.072-6.345,15.038-6.345,15.038,3.173-16.282-15.315-23.318c0,0-.142-5.527,1.237-7.042s3.533-2.205,2.183-9.863-.39-16.807-.39-18.645,4.14-13.3,4.14-13.3Z" transform="translate(-338.681 -286.897)"/>
      <path id="Path_187" data-name="Path 187" class="cls-2" d="M486.541,415.69l4.545,1.5s2.078,8,2.078,12.277,2.9,4.7,2.9,4.7,3.172,3.75,1.5,6.48-2.34,9.525-2.34,9.525.548,12.967-1.935,14.76S490.246,471,490.246,471s-4.552,8.138-4.41,10.073-6.352,15.037-6.352,15.037,3.18-16.282-15.315-23.318c0,0-.135-5.527,1.245-7.042s3.532-2.205,2.182-9.862-.39-16.807-.39-18.645,4.14-13.3,4.14-13.3Z" transform="translate(-339.204 -286.397)"/>
      <path id="Path_188" data-name="Path 188" class="cls-10" d="M360.15,777.744s7.245-4.553,12-1.245S360.15,777.744,360.15,777.744Z" transform="translate(-313.2 -376.299)"/>
      <path id="Path_189" data-name="Path 189" class="cls-10" d="M435.21,759.777a14.666,14.666,0,0,1,11.8,4.972C452.393,770.547,435.21,759.777,435.21,759.777Z" transform="translate(-331.965 -372.409)"/>
      <g id="Group_4" data-name="Group 4" class="cls-15" transform="translate(49.376)">
        <path id="Path_190" data-name="Path 190" d="M430.21,270.246c-.922.8-2.107,1.365-2.722,2.423a27.453,27.453,0,0,0-.96,3c-.42.975-1.642,1.77-2.49,1.155-.2-6.75-3.525-13.087-7.612-18.487a19.215,19.215,0,0,0-4.117-4.275,8.063,8.063,0,0,0-5.6-1.583c-2.25.307-4.23,1.837-6.5,2.025-3,.255-5.692-1.822-8.67-1.927a8.49,8.49,0,0,0-6.36,2.962,17.37,17.37,0,0,0-3.412,6.322,37.076,37.076,0,0,0-1.905,10.92c-.045,2.093-.24,4.7-2.175,5.482a10.268,10.268,0,0,1,0,1.665c1.95-.75,2.145-3.39,2.19-5.49a37.034,37.034,0,0,1,1.905-10.92,17.407,17.407,0,0,1,3.412-6.33,8.512,8.512,0,0,1,6.36-2.955c3,.1,5.7,2.175,8.67,1.927,2.25-.187,4.245-1.725,6.5-2.025a8.063,8.063,0,0,1,5.6,1.583,19.216,19.216,0,0,1,4.117,4.275c4.088,5.392,7.418,11.715,7.613,18.48.848.622,2.07-.187,2.49-1.147a29.109,29.109,0,0,1,.96-3c.615-1.058,1.8-1.62,2.722-2.415,2.34-2.017,2.925-5.415,2.835-8.5v-.285C432.918,265.8,432.205,268.521,430.21,270.246Z" transform="translate(-366.958 -245.586)"/>
        <path id="Path_191" data-name="Path 191" d="M371.271,271.7c-1.725-1.9-4.08-3.165-5.663-5.175a10.98,10.98,0,0,1-2.183-6.143,11.55,11.55,0,0,0,2.183,7.793c1.582,2.017,3.938,3.285,5.663,5.182a11.25,11.25,0,0,1,2.827,6.69,11.25,11.25,0,0,0-2.827-8.348Z" transform="translate(-363.385 -247.57)"/>
        <path id="Path_192" data-name="Path 192" d="M452.856,244.785c-.443,1.838-1.23,3.585-1.59,5.438a17.323,17.323,0,0,0-.233,3.75,14.57,14.57,0,0,1,.233-2.13c.36-1.86,1.148-3.6,1.59-5.437a9.227,9.227,0,0,0,.247-3.105A10.43,10.43,0,0,1,452.856,244.785Z" transform="translate(-385.292 -243.3)"/>
      </g>
    </g>
    <g id="assessor" transform="translate(860.985 283.409)">
      <ellipse id="Ellipse_13" data-name="Ellipse 13" class="cls-4" cx="91.192" cy="11.738" rx="91.192" ry="11.738" transform="translate(0 408.425)"/>
      <rect id="Rectangle_53" data-name="Rectangle 53" class="cls-4" width="21.33" height="21.33" transform="translate(81.705 108.545)"/>
      <rect id="Rectangle_55" data-name="Rectangle 55" class="cls-4" width="21.33" height="21.33" transform="translate(81.705 161.158)"/>
      <rect id="Rectangle_57" data-name="Rectangle 57" class="cls-4" width="21.33" height="21.33" transform="translate(81.705 213.763)"/>
      <rect id="Rectangle_59" data-name="Rectangle 59" class="cls-4" width="21.33" height="21.33" transform="translate(81.705 266.375)"/>
      <path id="Path_204" data-name="Path 204" class="cls-16" d="M972.213,743.03l-.892,10.627,2.992-.6-.45-11.527Z" transform="translate(-824.425 -340.537)"/>
      <path id="Path_205" data-name="Path 205" class="cls-14" d="M915.118,713.672c-3.607,10.275-2.588,24.143-1.777,30.878.3,2.49.578,4.005.578,4.005s-5.392,12.285-5.843,12.75-15.87,9.877-15.87,9.877l-10.778,6.293s-10.935-4.793-5.692-6.443a7.96,7.96,0,0,0,2.828-1.927c5.25-4.988,11.842-17.385,11.842-17.385s.45-6.292,2.1-9.285,1.05-34.44,1.05-34.44l.127-51.263V650.05l20.513.15a46.382,46.382,0,0,0,.885,6.75,103.136,103.136,0,0,0,2.858,11.37C921.553,680.013,920.053,699.6,915.118,713.672Z" transform="translate(-835.603 -361.64)"/>
      <path id="Path_206" data-name="Path 206" class="cls-10" d="M913.918,780.06s-5.392,12.285-5.843,12.75-15.87,9.877-15.87,9.877l-10.778,6.293s-10.935-4.793-5.692-6.443a7.959,7.959,0,0,0,2.828-1.927l.465,3.277,3.593-.15,30.75-27.667C913.641,778.545,913.918,780.06,913.918,780.06Z" transform="translate(-835.603 -393.145)"/>
      <path id="Path_207" data-name="Path 207" class="cls-16" d="M907.193,777l-30.922,27.855-3.593.15-.75-5.25s-6.285,8.085-20.25,7.635c0,0-8.385,5.542,4.043,5.843s28.3-.45,28.3-.45,11.085-17.25,20.362-15V810.81h2.85V797.663a11.843,11.843,0,0,0,5.055-7.8,9.555,9.555,0,0,0-3.307-8.76A5.647,5.647,0,0,1,907.193,777Z" transform="translate(-829.253 -393.377)"/>
      <path id="Path_208" data-name="Path 208" class="cls-14" d="M1014.266,729.506c-1.995,7.125-.908,11.138.458,13.29v.045a24.562,24.562,0,0,1,3.585,8.752l.12.675-14.07,20.513-7.635,3s-12.277-4.193-10.035-5.393c.563-.293,1.44-1.852,2.445-4.005,3-6.487,7.14-18.457,7.14-18.457v-.1c.435-4.943,1.125-9.87,1.89-14.775,1.373-8.827-1.148-30.495-1.148-30.495s-.9-26.347-2.85-32.34a49.461,49.461,0,0,1-1.747-9.33c-.405-3.75-.495-6.84-.495-6.84s8.085-11.25,22.905.9a16.3,16.3,0,0,1,3.1,3.36c10.238,14.565,2,46.65,2,46.65S1017.859,716.629,1014.266,729.506Z" transform="translate(-863.629 -361.454)"/>
      <path id="Path_209" data-name="Path 209" class="cls-10" d="M1018.459,783.373l-14.07,20.512-7.635,3s-12.277-4.193-10.035-5.392c.563-.293,1.44-1.853,2.445-4.005,5.2-.045,7.89,4.905,7.89,4.905l6.585-1.05s8.685-17.07,10.635-18.112.3-7.793.3-7.793V773.72c.052.06.1.127.157.188v.045a24.562,24.562,0,0,1,3.585,8.753Z" transform="translate(-863.636 -392.557)"/>
      <path id="Path_210" data-name="Path 210" class="cls-16" d="M994.13,802.98s-3.75-6.885-10.935-4.342c0,0-4.042,8.25-8.085,9.585s-2.693,5.835,6.443,4.192,22.905-3,22.905-3l.6-8.392,9.285-11.828s5.535-5.018-2.7-14.9v1.718s1.65,6.75-.3,7.792-10.6,18.12-10.6,18.12Z" transform="translate(-860.262 -392.702)"/>
      <path id="Path_211" data-name="Path 211" class="cls-10" d="M920.675,650.18a46.436,46.436,0,0,0,.885,6.75,94.09,94.09,0,0,0-21.42-.218V650.03Z" transform="translate(-842.06 -361.635)"/>
      <path id="Path_212" data-name="Path 212" class="cls-10" d="M1020.605,660.174s-12,.585-26.31.7c-.405-3.75-.495-6.84-.495-6.84s8.085-11.25,22.905.9a16.3,16.3,0,0,1,3.1,3.36A18.279,18.279,0,0,0,1020.605,660.174Z" transform="translate(-865.475 -361.451)"/>
      <path id="Path_213" data-name="Path 213" class="cls-17" d="M994.883,615.033s-52.56,2.543-68.58-1.95-31.9-.6-34.29-1.643-.45-17.37,1.65-21.412,13.62-44.925,13.62-44.925l11.085-57.795,11.677-3.218.825-.232,20.347-5.61,14.91-4.117s29.647,115.747,27.1,124.283a21.855,21.855,0,0,0-.435,10.042A25.08,25.08,0,0,0,994.883,615.033Z" transform="translate(-839.753 -317.66)"/>
      <path id="Path_214" data-name="Path 214" class="cls-18" d="M874.158,439s-10.5,11.25-2.55,17.52,13.177.6,13.177.6Z" transform="translate(-834.183 -308.877)"/>
      <path id="Path_215" data-name="Path 215" class="cls-10" d="M874.158,439s-10.5,11.25-2.55,17.52,13.177.6,13.177.6Z" transform="translate(-834.183 -308.877)"/>
      <path id="Path_216" data-name="Path 216" class="cls-14" d="M981.622,333.545s-1.23,1.17-3.082,2.895c-2.64,2.467-6.547,6.075-10.013,9.1-4.8,4.177-8.76,7.245-7.342,4.628s1.147-7.178.443-11.445c-.052-.285-.1-.57-.15-.848a78.581,78.581,0,0,0-2.318-9.27s7.755-10.02,12.045-13.973c1.6-1.5,2.715-2.115,2.782-1.073.075,1.4,1.125,4.5,2.43,7.785.038.1.075.2.12.307.87,2.25,1.853,4.56,2.715,6.555C980.573,331.265,981.622,333.545,981.622,333.545Z" transform="translate(-856.815 -277.387)"/>
      <path id="Path_217" data-name="Path 217" class="cls-10" d="M976.537,321.652a22.26,22.26,0,0,1-14.91,17.07A78.019,78.019,0,0,0,959.16,328.6s14.6-18.863,14.828-15.045C974.04,315.007,975.18,318.217,976.537,321.652Z" transform="translate(-856.815 -277.39)"/>
      <path id="Path_218" data-name="Path 218" class="cls-10" d="M951.15,353.113l1.89-2.663s1.252,7.635,5.858,4.268,4.83,25.342,4.83,25.342l-4.943,73.9L923.07,451.82l1.012-35.707,4.042-18,10-26.168,5.948-8.647Z" transform="translate(-847.793 -286.74)"/>
      <path id="Path_219" data-name="Path 219" class="cls-17" d="M963.735,380.658l-4.5,66.817-.473,7.08-19.913-1.192-.75-.045-15-.9,1.013-35.715,4.042-18,10-26.167,5.947-8.647,7.08-10.222,1.89-2.655s1.252,7.635,5.857,4.267l.1-.068h0C963.525,352.36,963.735,380.658,963.735,380.658Z" transform="translate(-847.8 -286.88)"/>
      <path id="Path_220" data-name="Path 220" class="cls-2" d="M915.083,406.26s-1.792,3.75-5.392,3.143-3.593,13.5-3.593,13.5-2.392,2.25-4.042.3-6,4.643-6,4.643l-27.255,1.2s12.127,5.542,9.75,22.313c0,0,41.175-2.55,42.525-6.443S915.083,406.26,915.083,406.26Z" transform="translate(-834.225 -300.692)"/>
      <path id="Path_221" data-name="Path 221" class="cls-19" d="M915.083,406.26s-1.792,3.75-5.392,3.143-3.593,13.5-3.593,13.5-2.392,2.25-4.042.3-6,4.643-6,4.643l-27.255,1.2s12.127,5.542,9.75,22.313c0,0,41.175-2.55,42.525-6.443S915.083,406.26,915.083,406.26Z" transform="translate(-834.225 -300.692)"/>
      <path id="Path_223" data-name="Path 223" class="cls-2" d="M946.388,354.813c-.983,1.5-3.8,9.18-6.143,15.885-1.958,5.588-3.592,10.5-3.592,10.5s-3.818,24.855-5.767,29.348-.893,22.013-.893,22.013l-7.268,43.268s-3.292,22.313-8.377,35.64c-5.017,13.117-10.6,19.267-10.777,19.462,2.25-3.045,14.512-63,14.512-63l4.05-75.615s.592-7.185,1.193-13.328,12.75-14.528,12.75-14.528L947.79,347.8C948.968,349.375,948.18,352.12,946.388,354.813Z" transform="translate(-842.918 -286.077)"/>
      <path id="Path_224" data-name="Path 224" class="cls-14" d="M910.871,481.191s-17.25-.75-25.6-10.785,19.313-4,19.313-4l7.193,1.65Z" transform="translate(-837.948 -315.278)"/>
      <path id="Path_225" data-name="Path 225" class="cls-10" d="M1006.277,569a21.854,21.854,0,0,0-.435,10.042c-18.818,1.335-38.948-3.75-38.948-3.75-3.75,3.45-13.627,8.535-13.627,8.535l-5.385-66.75c-3.443-9-4.792-56.153-4.792-56.153s.307-2.467.75-6.165a.71.71,0,0,1,.037-.278c1.343-10.327,4.005-29.715,5.31-32.332,1.8-3.6-5.535-13.178-5.535-13.178l3.337-28.462.405-3.435c7.035-3.142,12.427-13.177,12.427-13.177l4.14-7.253h0c4.5-2.887,4.733,25.41,4.733,25.41l-4.5,66.818,14.91-4.117S1008.82,560.461,1006.277,569Z" transform="translate(-852.798 -288.236)"/>
      <path id="Path_226" data-name="Path 226" class="cls-2" d="M1025.89,567.65c-20.512,10.185-57.795.75-57.795.75-3.75,3.45-13.627,8.535-13.627,8.535l-5.393-66.75c-3.435-9-4.785-56.152-4.785-56.152s4.335-35.183,6.135-38.775c.525-1.05.27-2.61-.352-4.29a54.287,54.287,0,0,1-3.285-25.118l1.44-12.232.4-3.428c7.042-3.15,12.435-13.185,12.435-13.185l3.75-6.57,6.9-12.105,3.27-5.73.555.5,4.238,3.84,4.5,3.75c5.873,4.95,16.02,13.665,21.255,19,4.6,4.695,6.06,22.957,6.48,36.7.277,9.053.113,16.148.113,16.148-4.643,7.642,7.5,69,7.5,69C1022.448,493.4,1025.89,567.65,1025.89,567.65Z" transform="translate(-853.098 -282.277)"/>
      <path id="Path_227" data-name="Path 227" class="cls-19" d="M979.551,364.587s-14.078,26.8-12.443,36.983,6.285,21.712,4.043,24.4a8.288,8.288,0,0,1-6.593,3.293c-2.25.15-8.25,4.342-8.25,4.792s-5.542.45-10.5,2.55a65.376,65.376,0,0,1-12.277,3.293s-14.25-.45-15.578.9-2.693,9.427.15,15.87,6,11.25,8.385,12.128,17.52-4.192,29.8-5.392,25.605-10.928,25.605-10.928,14.677-5.25,17.25-14.077S996,381.057,996,381.057,991.678,358.445,979.551,364.587Z" transform="translate(-846.133 -290.01)"/>
      <path id="Path_228" data-name="Path 228" class="cls-19" d="M977.158,361.588s-14.078,26.8-12.427,36.983,6.285,21.712,4.035,24.412a8.25,8.25,0,0,1-6.585,3.293c-2.25.15-8.25,4.342-8.25,4.792s-5.542.45-10.5,2.542a66.019,66.019,0,0,1-12.277,3.293s-14.25-.45-15.57.9-2.7,9.435.15,15.87,6,11.25,8.385,12.128,17.52-4.192,29.8-5.385,25.6-10.935,25.6-10.935,14.67-5.25,17.213-14.07-3.143-57.352-3.143-57.352S989.285,355.453,977.158,361.588Z" transform="translate(-845.54 -289.26)"/>
      <path id="Path_229" data-name="Path 229" class="cls-2" d="M978.966,362.791s-14.077,26.8-12.427,36.982,6.285,21.713,4.042,24.405a8.25,8.25,0,0,1-6.593,3.3c-2.25.15-8.25,4.343-8.25,4.785s-5.535.45-10.5,2.55a65.527,65.527,0,0,1-12.277,3.292s-14.25-.45-15.578.9-2.693,9.435.15,15.87,6,11.25,8.385,12.128,17.52-4.193,29.8-5.393,25.605-10.927,25.605-10.927,14.678-5.25,17.25-14.078-3.105-57.345-3.105-57.345S991.086,356.686,978.966,362.791Z" transform="translate(-845.991 -289.563)"/>
      <path id="Path_230" data-name="Path 230" class="cls-10" d="M996.869,458.777s-11.25-2.25-7.335,1.5,3.892,7.035,8.685,6.885S996.869,458.777,996.869,458.777Z" transform="translate(-864.202 -313.654)"/>
      <path id="Path_231" data-name="Path 231" class="cls-10" d="M1024.5,566.58s-5.085,3.442,4.642,11.378S1024.5,566.58,1024.5,566.58Z" transform="translate(-872.817 -340.772)"/>
      <path id="Path_232" data-name="Path 232" class="cls-10" d="M1011.927,604.31c0,.45-1.8,16.5,4.935,20.512S1011.927,604.31,1011.927,604.31Z" transform="translate(-869.952 -350.205)"/>
      <path id="Path_233" data-name="Path 233" class="cls-14" d="M865.159,436.59c-5.43.188-17.16,1.845-11.078,13.193,5.377,10.043,14.415,3.33,19.5-1.763a19.163,19.163,0,0,0-8.423-11.43Z" transform="translate(-830.119 -308.275)"/>
      <path id="Path_234" data-name="Path 234" class="cls-20" d="M881.39,451Z" transform="translate(-837.372 -311.877)"/>
      <path id="Path_235" data-name="Path 235" class="cls-20" d="M880.74,451.633l.225-.233Z" transform="translate(-837.21 -311.977)"/>
      <path id="Path_236" data-name="Path 236" class="cls-10" d="M985.585,341.3c-5.76,3.938-10.59,7.26-11.535,7.95-2.58,1.913-7.5,13.14-10.672,18.87-2.528,4.613-10.74,5.8-13.838,6.09l.4-3.427c7.043-3.15,12.435-13.185,12.435-13.185l13.92-24.4,4.792,4.357Z" transform="translate(-854.41 -282.425)"/>
      <path id="Path_237" data-name="Path 237" class="cls-21" d="M985.585,340.7c-5.76,3.938-10.59,7.26-11.535,7.958-2.58,1.905-7.5,13.133-10.672,18.862-2.528,4.612-10.74,5.8-13.838,6.09l.4-3.428c7.043-3.15,12.435-13.185,12.435-13.185l13.92-24.405,4.792,4.343S982.885,338.417,985.585,340.7Z" transform="translate(-854.41 -282.275)"/>
      <path id="Path_238" data-name="Path 238" class="cls-14" d="M967.99,310.506a22.245,22.245,0,1,1-18.91-21.99A22.246,22.246,0,0,1,967.99,310.506Z" transform="translate(-847.9 -271.193)"/>
      <path id="Path_239" data-name="Path 239" class="cls-10" d="M1007.348,385.318a19.772,19.772,0,0,1-7.177-7.71c-1.252-2.475-2.085-5.333-4.223-7.088-1.927-1.575-4.5-1.957-6.9-2.663-7.89-2.332-14.505-9.532-14.753-17.753-.12-3.87,1.088-7.732.54-11.565a12.81,12.81,0,0,0-2.505-5.963,20.537,20.537,0,0,0-2.167-2.332c-1.05-.99-2.153-1.95-3.113-3a11.641,11.641,0,0,1-1.575-2.138,10.294,10.294,0,0,1-.863-1.987c-1.5-4.59-.135-10.035-1.785-14.678l-.09-.255c-.623-1.65-1.89-3.3-3.653-3.428s-3.27,1.335-4.95,1.987c-3.517,1.365-7.312-.96-10.245-3.33s-6.24-5.078-9.967-4.553c-2.468.353-4.418,2.033-6.69,2.9a9.369,9.369,0,0,1-1.583.457,22.237,22.237,0,0,1,42.877,8.288,22.012,22.012,0,0,1-.487,4.642c.037.105.075.2.12.308.87,2.25,1.852,4.56,2.715,6.555l4.237,3.84,4.5,3.75c5.873,4.95,16.02,13.665,21.255,19C1005.473,353.316,1006.913,371.571,1007.348,385.318Z" transform="translate(-848.438 -271.193)"/>
      <path id="Path_240" data-name="Path 240" class="cls-22" d="M925.358,282.376c1.073-2.182,1.6-4.628,2.887-6.7,1.883-3,5.168-4.92,8.543-6.082,8.813-3.037,27.435-7.448,33,0,1.095,1.5,2,3.165,3.517,4.2a26.121,26.121,0,0,0,3.818,1.717c3.547,1.665,5.813,5.3,7.02,9s1.568,7.68,2.453,11.5a84.549,84.549,0,0,0,5.1,14.152c2.332,5.445,4.807,11.093,9.308,14.94,6.142,5.25,7.5,12.682,13.2,18.443,6.75,6.84,6.532,18.127,3.052,27.09a7.437,7.437,0,0,0-.8,3.66,7.178,7.178,0,0,0,1.988,3.39l3.69,4.162a20.749,20.749,0,0,1-22.673-10.455c-1.252-2.475-2.085-5.325-4.23-7.087-1.92-1.575-4.5-1.95-6.892-2.655-7.89-2.34-14.505-9.548-14.753-17.768-.12-3.862,1.088-7.725.54-11.55a12.751,12.751,0,0,0-2.513-6c-2.062-2.692-5.175-4.5-6.855-7.5-2.843-5.017-.682-11.535-2.73-16.92-.63-1.65-1.89-3.3-3.652-3.428s-3.27,1.335-4.958,1.988c-3.51,1.365-7.305-.953-10.238-3.33s-6.24-5.077-9.975-4.545c-2.468.345-4.41,2.025-6.683,2.9-1.68.645-5.085,1.223-6.555-.2C916.868,292.448,924.061,285.046,925.358,282.376Z" transform="translate(-846.826 -265.503)"/>
      <path id="Path_241" data-name="Path 241" class="cls-10" d="M1001.5,371.35c-1.26-2.475-2.085-5.325-4.23-7.08-1.92-1.575-4.5-1.957-6.9-2.663-7.883-2.332-14.5-9.54-14.752-17.76-.12-3.862,1.087-7.732.547-11.557a12.824,12.824,0,0,0-2.512-5.963c-2.07-2.692-5.182-4.5-6.855-7.5-2.843-5.01-.682-11.527-2.738-16.92-.623-1.642-1.89-3.292-3.645-3.427s-3.277,1.343-4.958,2c-3.51,1.365-7.312-.96-10.237-3.33s-6.248-5.077-9.975-4.553c-2.468.353-4.418,2.033-6.682,2.9-1.68.645-5.093,1.23-6.562-.187-3.09-3,4.1-10.388,5.392-13.043,1.073-2.19,1.6-4.628,2.9-6.7.068-.113.143-.225.217-.337a11.913,11.913,0,0,0-2.467,2.8c-1.283,2.07-1.815,4.5-2.887,6.7-1.3,2.655-8.49,10.065-5.393,13.043,1.5,1.425,4.875.84,6.555.2,2.25-.878,4.215-2.557,6.682-2.9,3.75-.532,7.05,2.175,9.975,4.545s6.75,4.7,10.245,3.33c1.68-.652,3.15-2.122,4.95-1.988s3,1.778,3.652,3.428c2.047,5.385-.113,11.9,2.73,16.92,1.68,2.947,4.793,4.792,6.855,7.5a12.749,12.749,0,0,1,2.512,6c.547,3.825-.66,7.688-.54,11.55.248,8.25,6.863,15.427,14.753,17.767,2.377.7,4.972,1.08,6.892,2.655,2.152,1.762,3,4.612,4.23,7.087a20.749,20.749,0,0,0,22.672,10.455l-1.74-1.965A20.973,20.973,0,0,1,1001.5,371.35Z" transform="translate(-846.772 -267.935)"/>
      <path id="Path_242" data-name="Path 242" class="cls-10" d="M956.615,355.388c-.982,1.5-3.795,9.18-6.142,15.885-2.2-.855-4.193-6.307-4.193-6.307L957.995,348.3C959.2,349.95,958.408,352.688,956.615,355.388Z" transform="translate(-853.595 -286.202)"/>
      <path id="Path_243" data-name="Path 243" class="cls-21" d="M957.215,354.79c-.982,1.5-3.795,9.18-6.142,15.885-2.2-.847-4.192-6.307-4.192-6.307l11.715-16.658C959.8,349.353,959.008,352.1,957.215,354.79Z" transform="translate(-853.745 -286.055)"/>
      <path id="Path_244" data-name="Path 244" class="cls-23" d="M867.645,451.651l-6.5-20.482a1.913,1.913,0,0,1,1.245-2.407h0a1.92,1.92,0,0,1,2.4,1.245l6.495,20.46-.645,4.282Z" transform="translate(-832.29 -306.295)"/>
      <path id="Path_245" data-name="Path 245" class="cls-24" d="M861.868,429.378h0a1.92,1.92,0,0,1,2.407,1.245l6.5,20.46-.487,3.21.473.495.645-4.283-6.532-20.46a1.92,1.92,0,0,0-2.4-1.245h0a1.92,1.92,0,0,0-1,.75A2.614,2.614,0,0,1,861.868,429.378Z" transform="translate(-832.393 -306.305)"/>
      <path id="Path_246" data-name="Path 246" class="cls-25" d="M822.6,400.295l3.645-1.155-.533,3.51-.112.773-1.065-1.11Z" transform="translate(-787.245 -254.94)"/>
      <path id="Path_247" data-name="Path 247" class="cls-26" d="M872.42,461.918a.749.749,0,0,1,.233-.2.33.33,0,0,1,.352,0,.931.931,0,0,1,.127.2.645.645,0,0,0,.465.307l-.113.75Z" transform="translate(-835.13 -314.545)"/>
      <path id="Path_248" data-name="Path 248" class="cls-14" d="M861.13,441.7s13.027-.075,9.96,5.468-7.86,6.21-7.86,6.21Z" transform="translate(-832.308 -309.552)"/>
    </g>
    <g id="plant" transform="translate(108 466.977)">
      <rect id="Rectangle_51" data-name="Rectangle 51" class="cls-4" width="21.33" height="21.33" transform="translate(119.678 40.268)"/>
      <path id="Path_146" data-name="Path 146" class="cls-4" d="M88.26,593.77c.188.24.368.51.563.75H92.79v5.123c.427.51.847,1.02,1.283,1.5V594.49h6v10.7h-2.43c.24.247.473.51.75.75h45.623V593.77Zm19.057,11.422h-6V594.535h6Zm7.267,0h-6V594.535h6Zm7.268,0h-6V594.535h6Zm7.26,0h-6V594.535h6Zm7.26,0h-6V594.535h6Zm7.26,0h-6V594.535h6Z" transform="translate(-57.855 -514.637)"/>
      <path id="Path_147" data-name="Path 147" class="cls-4" d="M141.65,641.12c.683.39,1.38.75,2.085,1.14v-.375h6v3.375l1.275.592v-3.967h6v6.487a1.88,1.88,0,0,0,.36.135V641.12Z" transform="translate(-71.202 -526.475)"/>
      <ellipse id="Ellipse_20" data-name="Ellipse 20" class="cls-4" cx="73.08" cy="11.738" rx="73.08" ry="11.738" transform="translate(26.107 224.745)"/>
      <rect id="Rectangle_62" data-name="Rectangle 62" class="cls-27" width="4.702" height="105.877" transform="translate(96.84 11.633)"/>
      <path id="Path_193" data-name="Path 193" class="cls-8" d="M201.244,642.115l-.292,4.77-.42,6.75-.173,2.8-.412,6.75-.18,2.8-.42,6.75-4.74,76.553a12.975,12.975,0,0,1-12.945,12.165H157.016A12.967,12.967,0,0,1,144.079,749.3l-4.717-76.6-.42-6.75-.172-2.8-.42-6.75-.172-2.8-.42-6.75-.3-4.77a6.75,6.75,0,0,1,6.75-7.133h50.408a6.705,6.705,0,0,1,6.63,7.185Z" transform="translate(-70.151 -524.928)"/>
      <path id="Path_194" data-name="Path 194" class="cls-28" d="M153.805,592.24l-.42,6.727H91l-.42-6.727Z" transform="translate(-23.005 -470.283)"/>
      <path id="Path_195" data-name="Path 195" class="cls-28" d="M153.41,604.95,153,611.685H91.79l-.42-6.735Z" transform="translate(-23.203 -473.46)"/>
      <path id="Path_196" data-name="Path 196" class="cls-28" d="M153.015,617.68l-.413,6.728H92.58l-.42-6.728Z" transform="translate(-23.4 -476.642)"/>
      <path id="Path_197" data-name="Path 197" class="cls-29" d="M108.125,549.7c27.383,19.815,38.813,50.805,38.813,50.805s-33-1.133-60.39-20.948-38.8-50.8-38.8-50.8S80.735,529.885,108.125,549.7Z" transform="translate(-47.728 -498.385)"/>
      <path id="Path_198" data-name="Path 198" class="cls-30" d="M47.72,528.76s34.26,19.013,45.248,34.755,53.962,36.99,53.962,36.99" transform="translate(-47.72 -498.385)"/>
      <path id="Path_199" data-name="Path 199" class="cls-29" d="M140.865,499.66C155.767,510.438,162,527.305,162,527.305s-17.962-.615-32.872-11.393S108,488.26,108,488.26,125.955,488.875,140.865,499.66Z" transform="translate(-62.79 -488.26)"/>
      <path id="Path_200" data-name="Path 200" class="cls-30" d="M108,488.26s18.645,10.35,24.622,18.915S162,527.305,162,527.305" transform="translate(-62.79 -488.26)"/>
      <path id="Path_201" data-name="Path 201" class="cls-29" d="M201.935,530.93c-17.122,18.818-20.745,43.41-20.745,43.41s24.143-5.925,41.25-24.75,20.745-43.41,20.745-43.41S219.057,512.113,201.935,530.93Z" transform="translate(-81.088 -492.74)"/>
      <path id="Path_202" data-name="Path 202" class="cls-30" d="M243.2,506.19s-22.3,19.29-27.975,32.58-34.035,35.573-34.035,35.573" transform="translate(-81.088 -492.743)"/>
    </g>
    <path id="Path_328" data-name="Path 328" class="cls-29" d="M623.247,110.05h-.324a36.928,36.928,0,0,0-30.83,16.875,36.928,36.928,0,0,0-30.83-16.875h-.324a36.7,36.7,0,0,0-36.348,36.675c0,12.007,5.258,29.043,15.512,43.061,19.536,26.711,51.99,50.081,51.99,50.081s32.454-23.365,51.985-50.081c10.258-14.018,15.512-31.055,15.512-43.061a36.7,36.7,0,0,0-36.343-36.675Zm-4.633,81.793a7.275,7.275,0,0,1-6.765-4.672h-7.7a2.435,2.435,0,0,1-2.293-1.657l-2.366-7.125L592,204.548a2.422,2.422,0,0,1-2.325,1.748h-.15a2.392,2.392,0,0,1-2.245-2l-7.715-46.4-5.639,27.458a2.4,2.4,0,0,1-2.335,1.826H560.744a2.413,2.413,0,1,1,0-4.822h8.95l7.987-36.918a2.422,2.422,0,0,1,4.749.2l7.879,47.33,6.709-23.4a2.374,2.374,0,0,1,2.258-1.725h.047a2.409,2.409,0,0,1,2.288,1.657l4.275,12.87h5.863a7.236,7.236,0,1,1,6.873,9.5Z" transform="translate(127.062 18.519)"/>
  </g>
</svg>
